# xmcd
#
# Track frame offsets:
#	150
#	26760
#	44354
#	58976
#	75095
#	91465
#	107404
#	133005
#	148654
#	167909
#	184964
#	207525
#	224880
#	241788
#	258497
#	280294
#	299822
#	316346
#	333944
#
# Disc length: 4667 seconds
#
# Revision: 0
# Processed by: cddbd v1.5.1PL0 Copyright (c) Steve Scherf et al.
# Submitted via: dBpowerAMP V4.0
#
DISCID=2f123913
DTITLE=Non spécifié - Non spécifié
DYEAR=2005
DGENRE=Inconnu
TTITLE0=Piste audio 01
TTITLE1=Piste audio 02
TTITLE2=Piste audio 03
TTITLE3=Piste audio 04
TTITLE4=Piste audio 05
TTITLE5=Piste audio 06
TTITLE6=Piste audio 07
TTITLE7=Piste audio 08
TTITLE8=Piste audio 09
TTITLE9=Piste audio 10
TTITLE10=Piste audio 11
TTITLE11=Piste audio 12
TTITLE12=Piste audio 13
TTITLE13=Piste audio 14
TTITLE14=Piste audio 15
TTITLE15=Piste audio 16
TTITLE16=Piste audio 17
TTITLE17=Piste audio 18
TTITLE18=Piste audio 19
EXTD=Ice cube - Check yo self
EXTT0=
EXTT1=
EXTT2=
EXTT3=
EXTT4=
EXTT5=
EXTT6=
EXTT7=
EXTT8=
EXTT9=
EXTT10=
EXTT11=
EXTT12=
EXTT13=
EXTT14=
EXTT15=
EXTT16=
EXTT17=
EXTT18=
PLAYORDER=
